<?xml version="1.0" encoding="utf-8"?>
<!-- Generator: Adobe Illustrator 16.0.0, SVG Export Plug-In . SVG Version: 6.00 Build 0)  -->
<!DOCTYPE svg PUBLIC "-//W3C//DTD SVG 1.1//EN" "http://www.w3.org/Graphics/SVG/1.1/DTD/svg11.dtd">
<svg version="1.1" xmlns="http://www.w3.org/2000/svg" xmlns:xlink="http://www.w3.org/1999/xlink" x="0px" y="0px" width="300px"
	 height="300px" viewBox="0 0 300 300" enable-background="new 0 0 300 300" xml:space="preserve">
<g id="Layer_1">
</g>
<g id="Layer_2">
	<circle fill="#333333" cx="150.743" cy="92.844" r="37.373"/>
	<path opacity="0.51" d="M209.49,51.2c0,7.06-4,13.59-10.82,18.93c-1.87-4.81-4.62-9.26-8.08-13.17c1.76-1.72,2.72-3.57,2.72-5.51
		c0-8.63-19.06-17.62-42.569-17.62c-23.5,0-42.56,8.99-42.56,17.62c0,1.94,0.96,3.8,2.73,5.52c-3.47,3.91-6.22,8.36-8.08,13.17
		C96.01,64.79,92,58.26,92,51.2c0-18.08,26.3-32.73,58.74-32.73C183.19,18.47,209.49,33.12,209.49,51.2z"/>
	<path fill="#333333" d="M190.92,175.26c-5.78-14.6-21.59-25.08-40.18-25.08c-18.59,0-34.39,10.48-40.18,25.08L62.5,281.167h175.667
		L190.92,175.26z"/>
	<path opacity="0.51" d="M281.23,272.2c-4.391,7.99-10.57,9.54-15.99,9.54c-5.41,0-26.55,0-26.55,0l-1.221-2.13L190.92,175.26
		c-4.21-10.62-13.72-19.06-25.75-22.88l33.57-36.9c0,0,13.66-14.69,30.67-14.69s45.88,15.98,45.88,49.49
		c0,25.26-7.21,24.48-11.34,37.63c-4.12,13.149-3.09,16.75-0.51,22.68c2.579,5.93,18.56,42.28,18.56,42.28
		S285.61,264.21,281.23,272.2z"/>
	<path opacity="0.51" d="M135.39,152.6l-0.07,0.12c-11.56,3.95-20.66,12.21-24.76,22.54L64.49,276.78l-2.83,4.96
		c0,0-21.14,0-26.55,0c-5.41,0-11.6-1.55-15.98-9.54s-0.77-19.33-0.77-19.33s15.98-36.351,18.56-42.28
		c2.57-5.93,3.61-9.53-0.52-22.68c-4.12-13.15-11.34-12.37-11.34-37.63c0-33.51,28.87-49.49,45.89-49.49
		c17.01,0,30.67,14.69,30.67,14.69L135.39,152.6z"/>
</g>
</svg>


<?xml version="1.0" encoding="utf-8"?>
	<!-- Generator: Adobe Illustrator 16.0.0, SVG Export Plug-In . SVG Version: 6.00 Build 0)  -->
	<!DOCTYPE svg PUBLIC "-//W3C//DTD SVG 1.1//EN" "http://www.w3.org/Graphics/SVG/1.1/DTD/svg11.dtd">
	<svg version="1.1" xmlns="http://www.w3.org/2000/svg" xmlns:xlink="http://www.w3.org/1999/xlink" x="0px" y="0px" width="11px"
			height="11px" viewBox="0 0 300 300" enable-background="new 0 0 300 300" xml:space="preserve">
	<g id="Layer_1">
	</g>
	<g id="Layer_2">
		<circle fill="" cx="149.845" cy="87.11" r="41.115"/>
		<path opacity="0.31" d="M214.475,41.296c0,7.766-4.399,14.951-11.903,20.825c-2.057-5.292-5.083-10.187-8.89-14.488
			c1.937-1.892,2.992-3.927,2.992-6.062c0-9.495-20.968-19.385-46.831-19.385c-25.854,0-46.822,9.89-46.822,19.385
			c0,2.134,1.056,4.18,3.003,6.073c-3.817,4.301-6.843,9.197-8.889,14.488c-7.503-5.885-11.915-13.07-11.915-20.836
			c0-19.891,28.934-36.008,64.623-36.008C185.542,5.289,214.475,21.406,214.475,41.296z"/>
		<path fill="" d="M194.045,177.778c-6.358-16.061-23.752-27.59-44.202-27.59c-20.453,0-37.834,11.53-44.205,27.59
			L52.765,294.291h193.257L194.045,177.778z"/>
		<path opacity="0.31" d="M293.399,284.427c-4.831,8.79-11.629,10.495-17.592,10.495c-5.952,0-29.208,0-29.208,0l-1.344-2.344
			l-51.211-114.8c-4.631-11.684-15.093-20.968-28.328-25.171l36.933-40.595c0,0,15.027-16.161,33.74-16.161
			c18.714,0,50.475,17.58,50.475,54.445c0,27.79-7.932,26.931-12.476,41.399c-4.533,14.466-3.399,18.427-0.561,24.95
			c2.837,6.523,20.418,46.514,20.418,46.514S298.218,275.636,293.399,284.427z"/>
		<path opacity="0.31" d="M132.955,152.85l-0.078,0.133c-12.717,4.345-22.728,13.432-27.239,24.796L54.956,289.465l-3.113,5.457
			c0,0-23.257,0-29.209,0s-12.762-1.705-17.581-10.495c-4.818-8.791-0.847-21.267-0.847-21.267s17.581-39.99,20.418-46.514
			c2.828-6.523,3.972-10.484-0.572-24.95c-4.533-14.468-12.476-13.609-12.476-41.399c0-36.865,31.761-54.445,50.486-54.445
			c18.713,0,33.741,16.161,33.741,16.161L132.955,152.85z"/>
	</g>
	</svg>
