<svg version="1.1" id="Layer_1" xmlns="http://www.w3.org/2000/svg" xmlns:xlink="http://www.w3.org/1999/xlink" x="0px" y="0px"
width="25px" height="25px" viewBox="0 0 300 300" style="enable-background:new 0 0 300 300;" xml:space="preserve">
<style>
    path {
        fill: rgb(255, 255, 255);
    }
    path:hover {
        fill: rgb(0, 0, 0,);
    }
</style>
    <path opacity="0.31" d="M274.2,112.5h-72.7c-7.8,0-14.1-6.3-14.1-14.1V25.8c0-3.9,3.2-7,7-7H218c3.9,0,7,3.2,7,7V75h49.2c3.9,0,7,3.2,7,7v23.4
    C281.2,109.3,278.1,112.5,274.2,112.5z"/>
    <path class="two" d="M112.5,98.4V25.8c0-3.9-3.2-7-7-7H82c-3.9,0-7,3.2-7,7V75H25.8c-3.9,0-7,3.2-7,7v23.4
    c0,3.9,3.2,7,7,7h72.7C106.2,112.5,112.5,106.2,112.5,98.4z "/>
    <path opacity="0.31" d="M112.5,274.2v-72.7c0-7.8-6.3-14.1-14.1-14.1H25.8c-3.9,0-7,3.2-7,7V218
    c0,3.9,3.2,7,7,7H75v49.2c0,3.9,3.2,7,7,7h23.4C109.3,281.2,112.5,278.1,112.5,274.2z "/>
    <path class="four" d="M225,274.2V225h49.2c3.9,0,7-3.2,7-7v-23.4
    c0-3.9-3.2-7-7-7h-72.7c-7.8,0-14.1,6.3-14.1,14.1v72.7c0,3.9,3.2,7,7,7H218C221.8,281.2,225,278.1,225,274.2z"/>
</svg>