<?xml version="1.0" encoding="utf-8"?>
<!-- Generator: Adobe Illustrator 16.0.0, SVG Export Plug-In . SVG Version: 6.00 Build 0)  -->
<!DOCTYPE svg PUBLIC "-//W3C//DTD SVG 1.1//EN" "http://www.w3.org/Graphics/SVG/1.1/DTD/svg11.dtd">
<svg version="1.1" id="Layer_1" xmlns="http://www.w3.org/2000/svg" xmlns:xlink="http://www.w3.org/1999/xlink" x="0px" y="0px"
	 width="300px" height="300px" viewBox="0 0 300 300" enable-background="new 0 0 300 300" xml:space="preserve">
<path d="M290.625,225H37.5V46.875c0-5.18-4.195-9.375-9.375-9.375H9.375C4.195,37.5,0,41.695,0,46.875V243.75
	c0,10.354,8.396,18.75,18.75,18.75h271.875c5.18,0,9.375-4.195,9.375-9.375v-18.75C300,229.195,295.805,225,290.625,225z"/>
<path d="M271.875,56.25h-69.176c-12.527,0-18.803,15.146-9.943,24.006L211.74,99.24l-42.99,42.996l-42.99-42.99
	c-7.324-7.324-19.195-7.324-26.514,0l-40.248,40.248c-3.662,3.662-3.662,9.598,0,13.26l13.254,13.254
	c3.662,3.662,9.598,3.662,13.26,0l26.988-26.994l42.99,42.99c7.324,7.324,19.195,7.324,26.514,0l56.25-56.25l18.984,18.984
	c8.859,8.859,24.006,2.584,24.006-9.943v-69.17C281.25,60.445,277.055,56.25,271.875,56.25z"/>
</svg>
